# xmcd
#
# Track frame offsets: 
#        182
#        13780
#        27032
#        39755
#        53195
#        71537
#        85452
#        98092
#        113745
#        127957
#        143827
#        158505
#        175417
#        189422
#        203037
#        217600
#        235087
#        252857
#        266522
#        280362
#        295670
#        310440
#        321782
#
# Disc length: 4463 seconds
#
# Revision: 25
# Processed by: cddbd v1.5.2PL0 Copyright (c) Steve Scherf et al.
# Submitted via: ExactAudioCopyFreeDBPlugin 1.0
#
DISCID=38116d17
DTITLE=Various Artist - Hitsville USA:  The Motown Singles Collection
DTITLE=s, 1959 - 1992 [box sets]
DYEAR=1992
DGENRE=Rhythm and Blues
TTITLE0=The Jackson 5 - I Want You Back
TTITLE1=The Originals - The Bells
TTITLE2=Rare Earth - Get Ready
TTITLE3=The Jackson 5 - ABC
TTITLE4=The Temptations - Ball of Confusion (That's What the World is 
TTITLE4=Today)
TTITLE5=The Jackson 5 - The Love You Save
TTITLE6=Stevie Wonder - Signed, Sealed, Delivered I'm Yours
TTITLE7=Edwin Starr - War
TTITLE8=The Spinners - It's a Shame
TTITLE9=Diana Ross - Ain't No Mountain High Enough
TTITLE10=The Four Tops - Still Water (Love)
TTITLE11=The Jackson 5 - I'll Be There
TTITLE12=Smokey Robinson and The Miracles - The Tears of a Clown
TTITLE13=The Supremes - Stoned Love
TTITLE14=Gladys Knight and The Pips - If I Were Your Woman
TTITLE15=The Temptations - Just My Imagination (Running Away with Me)
TTITLE16=Marvin Gaye - What's Going On
TTITLE17=The Jackson 5 - Never Can Say Goodbye
TTITLE18=The Supremes - Nathan Jones
TTITLE19=Gladys Knight and The Pips - I Don't Want to Do Wrong
TTITLE20=The Undisputed Truth - Smiling Faces Sometimes
TTITLE21=Marvin Gaye - Mercy Mercy Me (The Ecology)
TTITLE22=Rare Earth - I Just Want to Celebrate
EXTD=
EXTT0=
EXTT1=
EXTT2=
EXTT3=
EXTT4=
EXTT5=
EXTT6=
EXTT7=
EXTT8=
EXTT9=
EXTT10=
EXTT11=
EXTT12=
EXTT13=
EXTT14=
EXTT15=
EXTT16=
EXTT17=
EXTT18=
EXTT19=
EXTT20=
EXTT21=
EXTT22=
PLAYORDER=
